<?xml version="1.0" standalone="no"?>
<!DOCTYPE svg PUBLIC "-//W3C//DTD SVG 1.1//EN" "http://www.w3.org/Graphics/SVG/1.1/DTD/svg11.dtd" >
<!--
2013-9-30: Created.
-->
<svg>
<metadata>
Created by iconfont
</metadata>
<defs>

<font id="iconfont" horiz-adv-x="1024" >
  <font-face
    font-family="iconfont"
    font-weight="500"
    font-stretch="normal"
    units-per-em="1024"
    ascent="896"
    descent="-128"
  />
    <missing-glyph />
    
    <glyph glyph-name="yunshangchuan" unicode="&#58886;" d="M1024 202.75199999999995q0-25.6-8.704-48.128t-24.576-40.448-36.864-30.208-45.568-16.384l1.024-1.024-17.408 0-4.096 0-4.096 0-675.84 0q-5.12-1.024-16.384-1.024-39.936 0-74.752 15.36t-60.928 41.472-40.96 60.928-14.848 74.752 14.848 74.752 40.96 60.928 60.928 41.472 74.752 15.36l1.024 0q-1.024 8.192-1.024 15.36l0 16.384q0 72.704 27.648 137.216t75.776 112.128 112.128 75.264 136.704 27.648 137.216-27.648 112.64-75.264 75.776-112.128 27.648-137.216q0-37.888-8.192-74.24t-22.528-69.12q5.12 1.024 10.752 1.536t10.752 0.512q27.648 0 52.736-10.752t43.52-29.696 29.184-44.032 10.752-53.76zM665.6 324.60799999999995q20.48 0 26.624 4.608t-8.192 22.016q-14.336 18.432-31.744 48.128t-36.352 60.416-38.4 57.344-37.888 38.912q-18.432 13.312-27.136 14.336t-25.088-12.288q-18.432-15.36-35.84-38.912t-35.328-50.176-35.84-52.224-36.352-45.056q-18.432-18.432-13.312-32.768t25.6-14.336l16.384 0q9.216 0 19.968-0.512t20.992-0.512l17.408 0q14.336-1.024 18.432-9.728t4.096-24.064q0-17.408-0.512-30.72t-0.512-25.6-0.512-25.6-0.512-30.72q0-7.168 1.536-15.36t5.632-15.36 12.288-11.776 21.504-4.608l23.552 0q9.216 0 27.648-1.024 24.576 0 28.16 12.288t3.584 38.912q0 23.552 0.512 42.496t0.512 51.712q0 23.552 4.608 36.352t19.968 12.8q11.264 0 32.256 0.512t32.256 0.512z"  horiz-adv-x="1024" />

    
    <glyph glyph-name="bold" unicode="&#59154;" d="M707.87072 411.3408c37.49888 44.544 60.12928 102.01088 60.12928 164.6592 0 141.16864-114.85184 256-256 256l-320 0 0-896 384 0c141.14816 0 256 114.85184 256 256 0 92.95872-49.80736 174.4896-124.12928 219.3408zM384 704l101.49888 0c55.97184 0 101.49888-57.42592 101.49888-128s-45.52704-128-101.49888-128l-101.49888 0 0 256zM543.00672 64l-159.00672 0 0 256 159.00672 0c58.44992 0 106.00448-57.42592 106.00448-128s-47.55456-128-106.00448-128z"  horiz-adv-x="1024" />

    
    <glyph glyph-name="italic" unicode="&#59350;" d="M896 832l0-64-128 0-320-768 128 0 0-64-448 0 0 64 128 0 320 768-128 0 0 64z"  horiz-adv-x="1024" />

    
    <glyph glyph-name="underline" unicode="&#59563;" d="M704 832l128 0 0-416.01024c0-159.06816-143.27808-288.01024-320-288.01024s-320 128.94208-320 288.01024l0 416.01024 128 0 0-416.01024c0-40.16128 18.24768-78.70464 51.36384-108.50304 36.90496-33.19808 86.85568-51.48672 140.63616-51.48672s103.75168 18.28864 140.63616 51.48672c33.11616 29.7984 51.36384 68.34176 51.36384 108.50304l0 416.01024zM192 64l640 0 0-128-640 0z"  horiz-adv-x="1024" />

    
    <glyph glyph-name="paste" unicode="&#58915;" d="M832 576l0 160c0 17.6-14.4 32-32 32l-224 0 0 64c0 35.2-28.8 64-64 64l-128 0c-35.2 0-64-28.8-64-64l0-64-224 0c-17.6 0-32-14.4-32-32l0-640c0-17.6 14.4-32 32-32l288 0 0-192 448 0 192 192 0 512-192 0zM384 831.872c0.032 0.032 0.064 0.064 0.128 0.128l127.776 0c0.032-0.032 0.096-0.064 0.128-0.128l0-63.872-128 0 0 63.872zM192 640l0 64 512 0 0-64-512 0zM832-37.504l0 101.504 101.504 0-101.504-101.504zM960 128l-192 0 0-192-320 0 0 576 512 0 0-384z"  horiz-adv-x="1024" />

    
    <glyph glyph-name="layout_horizontal" unicode="&#59023;" d="M96 768l0-800 800 0 0 800-800 0zM480 0l-352 0 0 736 352 0 0-736zM864 0l-352 0 0 736 352 0 0-736z"  horiz-adv-x="1024" />

    
    <glyph glyph-name="enter" unicode="&#59015;" d="M959.50101 443.042721c0-36.655851-8.492418-72.226998-25.468045-106.712417-16.98279-34.485419-40.072671-65.247027-69.276806-92.272543-29.204136-27.031657-62.993706-48.624441-101.371782-64.782446-38.370913-16.148795-78.951143-24.229844-121.741715-24.229844l-39.73191 0c-15.616676 0-32.428573-0.157589-50.429553-0.465604-17.993816-0.315178-35.82288-0.463558-53.483098-0.463558l-47.88152 0c-19.695574 0-35.317367-1.866511-46.863331-5.596462-11.543917-3.729951-16.98279-11.80486-16.299221-24.229844 0-9.324366-0.170892-20.043499-0.512676-32.156374-0.340761-12.119015-0.505513-23.144116-0.505513-33.091676 0-16.155958-4.755304-26.559912-14.263865-31.219026-9.510608-4.659113-22.073738-1.400906-37.696554 9.781784-16.299221 11.190877-34.976606 24.38948-56.031131 39.616276-21.054525 15.220656-42.792619 30.912034-65.205071 47.067992-22.414499 16.155958-44.487214 31.998785-66.218144 47.533596-21.736047 15.532765-41.09086 29.512151-58.07365 41.937135-15.615653 11.18883-23.602557 21.750373-23.936155 31.69077-0.342808 9.94756 6.619768 20.509103 20.88261 31.69077 14.94027 11.183713 32.428573 24.387433 52.464909 39.616276 20.036335 15.220656 40.920992 30.91101 62.657039 47.060829 21.73093 16.155958 43.128263 32.003901 64.182788 47.538713s39.729863 29.512151 56.031131 41.939181c17.658172 13.669324 32.428573 18.950607 44.314275 15.847943 11.886725-3.107781 17.831111-13.048177 17.831111-29.824259 0-4.973268 0.169869-11.033287 0.512676-18.179035 0.333598-7.145747 0.675382-14.755052 1.01819-22.830985 0.340761-8.081049 0.675382-15.847943 1.01819-23.301705 0.340761-7.460925 0.512676-13.983479 0.512676-19.571754 0-11.812023 3.89982-19.108197 11.715833-21.908986 7.80885-2.792603 18.506493-4.193509 32.087812-4.193509 30.563086 0.621147 64.86431 0.935302 102.894462 0.935302l105.95517 0c15.622816 0 31.239492 3.258207 46.862307 9.782807 15.623839 6.523577 29.880541 15.226796 42.785455 26.103518 12.904914 10.867512 23.432689 23.452131 31.589462 37.743626 8.149611 14.291494 12.221346 29.518291 12.221346 45.667086l0 65.247027c0 24.850991-0.170892 48.932456-0.505513 72.234161-0.340761 23.296589-0.512676 43.646056-0.512676 61.045331l0 32.620955c0 13.669324 4.583388 25.009603 13.751189 34.019815 9.1678 9.010211 20.719904 15.847943 34.643008 20.507056 13.922081 4.66116 29.03222 6.990205 45.333488 6.990205 16.299221 0 31.410384-2.173502 45.333488-6.5246 13.922081-4.351098 25.473161-10.719132 34.640961-19.108197 9.1678-8.389064 13.753235-18.793018 13.753235-31.225165l0-25.161053 0-43.809785c0-16.155958 0.169869-33.397644 0.51063-51.727105 0.335644-18.327414 0.506537-35.884278 0.506537-52.656267L959.503057 469.145216 959.503057 443.042721 959.50101 443.042721 959.50101 443.042721zM959.50101 443.042721"  horiz-adv-x="1024" />

    
    <glyph glyph-name="cut" unicode="&#59112;" d="M864.192 650.368c1.088 1.856 2.432 3.904 3.264 5.504 45.312 88.32-6.208 166.656-6.208 166.656l-166.016-166.08-77.44-77.44L500.608 461.696 153.408 808.896c0 0-45.12-71.808 0.256-160.128 24.96-48.448 146.688-170.624 254.656-279.424L343.168 304.192c-81.6 44.288-161.664 23.68-221.952-36.608-75.968-76.096-76.544-198.016-0.448-273.984s200.256-76.48 276.224-0.512c56 56 71.36 136.96 44.928 206.4 14.656 14.272 40.576 39.36 72.192 70.656 31.872-31.104 57.6-56.064 72.384-70.272-26.496-69.504-11.648-150.848 44.352-206.848 76.032-76.032 199.296-75.904 275.392 0.128 76.032 76.032 69.248 192.64-6.72 268.608-60.224 60.288-147.904 74.944-229.376 30.592L603.264 359.104c74.624 76.48 151.744 158.208 204.992 220.608C808.256 579.712 855.744 634.048 864.192 650.368zM341.44 49.088c-45.248-45.248-118.528-45.248-163.776-0.128-45.184 45.248-45.248 118.528 0 163.776C222.784 257.92 296.128 257.92 341.312 212.736 386.624 167.552 386.624 94.336 341.44 49.088zM475.712 400.96c18.688 18.752 49.216 18.752 67.904 0 18.752-18.688 18.752-49.152 0-67.904-18.688-18.688-49.216-18.688-67.904 0C456.96 351.808 456.96 382.272 475.712 400.96zM850.496 212.672c45.248-45.248 45.248-118.592 0-163.776-45.184-45.248-118.528-45.248-163.776 0-45.12 45.184-45.184 118.528 0 163.776C732.032 257.792 805.312 257.792 850.496 212.672z"  horiz-adv-x="1024" />

    
    <glyph glyph-name="edit" unicode="&#59038;" d="M92.019 631.026h-21.952v-547.75c0-61.182 49.28-110.858 109.777-110.858h719.677v447.53c0 12.262-9.828 22.204-21.952 22.204s-21.952-9.941-21.952-22.204v-425.326l21.952 22.204h-697.726c-36.286 0-65.875 29.828-65.875 66.45v525.547l-21.952-22.204h496.391c12.124 0 21.952 9.941 21.952 22.204s-9.828 22.204-21.952 22.204h-496.391zM446.097 312.366l-4.518-5.801-4.217-170.809 162.513 58.388 357.319 472.268-148.134 112.062-362.961-466.108zM799.908 729.942l113.215-85.647-4.285 31.276-339.875-449.212 10.085 7.429-126.292-45.375 29.291-21.478 3.238 131.137-4.701-13.184 349.714 449.096-30.391-4.043zM845.297 561.095l25.714 35.993-98.584 72.061-25.714-35.993 98.584-72.061z"  horiz-adv-x="1024" />

    
    <glyph glyph-name="delete" unicode="&#58902;" d="M677.647059 640l0 90.352941c0 37.436235-23.461647 60.235294-61.771294 60.235294L408.094118 790.588235c-38.249412 0-61.741176-22.799059-61.741176-60.235294l0-90.352941-180.705882 0 0-60.235294 60.235294 0 0-512c0-54.272 33.972706-90.352941 90.352941-90.352941l391.529412 0c55.085176 0 90.352941 33.490824 90.352941 90.352941l0 512 60.235294 0 0 60.235294L677.647059 640zM406.588235 730.352941l210.823529 0-1.264941-90.352941L406.588235 640 406.588235 730.352941zM737.882353 37.647059l-451.764706 0 0 542.117647 451.764706 0L737.882353 37.647059zM466.823529 519.529412l-58.729412 0-1.505882-391.529412 60.235294 0L466.823529 519.529412zM617.411765 519.529412l-60.235294 0 0-391.529412 60.235294 0L617.411765 519.529412z"  horiz-adv-x="1024" />

    
    <glyph glyph-name="edit1" unicode="&#58905;" d="M169.252287 187.986721L169.252287 33.883970999999974 322.445318 33.883970999999974 728.354048 440.784284 575.661414 593.359238ZM703.015963 720.728114L626.883005 644.592087 779.127432 492.421338 855.236853 568.5031309999999Z"  horiz-adv-x="1024" />

    
    <glyph glyph-name="view" unicode="&#59017;" d="M883.234595 523.052973c-205.647568 205.647568-540.229189 205.647568-745.876757 0L0 385.712432l140.765405-140.765405c102.815135-102.815135 237.872432-154.24 372.947027-154.24s270.114595 51.407568 372.947027 154.24l137.357838 137.357838-140.782702 140.748108z m-21.050811-253.647568c-192.155676-192.138378-504.804324-192.138378-696.96 0l-116.307027 116.307027 112.899459 112.89946c192.155676 192.138378 504.804324 192.138378 696.96 0l116.307027-116.307027-112.899459-112.89946zM494.218378 522.897297c-66.767568 0-121.081081-54.313514-121.081081-121.081081a17.297297 17.297297 0 0 1 34.594595 0c0 47.688649 38.797838 86.486486 86.486486 86.486487a17.297297 17.297297 0 0 1 0 34.594594zM511.515676 609.383784c-123.987027 0-224.864865-100.877838-224.864865-224.864865s100.877838-224.864865 224.864865-224.864865 224.864865 100.877838 224.864865 224.864865-100.860541 224.864865-224.864865 224.864865z m0-415.135135c-104.908108 0-190.27027 85.362162-190.270271 190.27027s85.362162 190.27027 190.270271 190.27027 190.27027-85.362162 190.27027-190.27027-85.344865-190.27027-190.27027-190.27027z"  horiz-adv-x="1024" />

    
    <glyph glyph-name="weibiaoti4" unicode="&#58899;" d="M512 745.92c-338.304 0-512-340.928-512-340.928S131.072 64 512 64c345.024 0 512 339.648 512 339.648S855.616 745.92 512 745.92L512 745.92 512 745.92zM512.768 191.872c-123.712 0-213.12 93.248-213.12 213.12s89.408 213.12 213.12 213.12c123.712 0 213.12-93.248 213.12-213.12S636.48 191.872 512.768 191.872L512.768 191.872 512.768 191.872zM512.768 532.864C442.112 532.736 384.896 473.472 384.896 404.992c0-68.48 57.216-127.872 127.872-127.872 70.72 0 127.872 59.392 127.872 127.872C640.64 473.472 583.488 532.992 512.768 532.864L512.768 532.864 512.768 532.864z"  horiz-adv-x="1024" />

    
    <glyph glyph-name="baocun" unicode="&#58939;" d="M819.823 812.306H206.991c-67.703 0-122.588-54.885-122.588-122.588v-612.833c0-67.703 54.885-122.588 122.588-122.588h612.833c67.703 0 122.588 54.885 122.588 122.588V689.718c-0.001 67.703-54.885 122.588-122.589 122.588z m-124.435-63.313v-241.142H331.772V748.993h363.616z m185.787-672.274c0.027-33.765-27.323-61.158-61.088-61.185H207.133c-16.389 0-31.864 6.297-43.454 17.887s-18.039 26.91-18.039 43.298v612.94c0.061 33.923 27.57 61.395 61.493 61.41h61.327v-245.294c-0.05-33.771 27.286-61.187 61.057-61.237h367.888c33.853 0 61.299 27.387 61.299 61.237V751.069h61.206c33.872-0.036 61.301-27.524 61.265-61.396V76.719zM574.817 566.064c17.483 0 31.656 14.173 31.656 31.656v61.292c0 17.483-14.173 31.656-31.656 31.656s-31.656-14.173-31.656-31.656v-61.292c0-17.483 14.173-31.656 31.656-31.656z"  horiz-adv-x="1024" />

    
    <glyph glyph-name="Esc" unicode="&#58898;" d="M517.290667-42.666667H31.317333V860.928h465.493334v-103.850667H147.968v-289.28h323.157333v-103.253333H147.968V60.586667h369.322667V-42.666667zM637.44 96.768c57.514667-41.642667 119.552-62.464 186.026667-62.464 89.088 0 133.632 29.184 133.632 87.552a76.544 76.544 0 0 1-29.184 61.44c-19.456 16.213333-58.88 35.328-118.442667 57.514667-71.509333 28.842667-118.016 57.258667-139.349333 85.504-21.418667 28.16-32.085333 62.293333-32.085334 102.4 0 57.173333 24.149333 102.912 72.533334 137.386666 48.469333 34.389333 108.032 51.541333 178.858666 51.541334 54.784 0 105.813333-9.472 152.746667-28.586667v-110.250667a295.765333 295.765333 0 0 1-163.84 46.677334c-36.522667 0-66.304-7.936-89.258667-23.893334-22.954667-15.957333-34.389333-36.949333-34.389333-62.976 0-25.685333 8.277333-45.738667 24.746667-60.074666 16.554667-14.506667 53.162667-32.938667 109.994666-55.466667 71.936-26.794667 120.576-54.613333 145.834667-83.370667 25.258667-28.842667 37.888-64.426667 37.888-106.752 0-59.136-24.234667-105.728-72.533333-139.776-48.469333-33.962667-111.189333-51.029333-188.16-51.029333-66.901333 0-125.269333 12.629333-175.018667 37.973333V96.768z m1034.837333-110.250667c-49.493333-29.610667-108.885333-44.373333-178.517333-44.373333-93.354667 0-168.362667 29.952-225.194667 89.856-56.746667 59.904-85.162667 137.472-85.162666 232.789333 0 105.813333 30.634667 190.976 91.904 255.744 61.269333 64.768 143.189333 97.109333 245.845333 97.109334 59.136 0 109.653333-10.496 151.722667-31.488v-113.152a250.026667 250.026667 0 0 1-151.722667 50.176c-65.28 0-118.528-22.698667-159.573333-68.010667-40.96-45.226667-61.44-105.642667-61.44-181.077333 0-74.24 19.285333-132.437333 58.026666-174.421334 38.656-41.984 90.88-62.976 156.586667-62.976 55.637333 0 108.117333 18.261333 157.525333 54.784v-104.96z"  horiz-adv-x="1706" />

    
    <glyph glyph-name="copy" unicode="&#58903;" d="M880 648.992l-162.016 166.016Q700.992 832 677.984 832h-316.992q-26.016 0-46.016-18.016-16.992-15.008-23.008-36.992H231.968q-43.008 0-73.504-31.008t-30.496-76v-627.008q0-44 30.496-75.488T231.968-64h508q43.008 0 73.504 31.488t30.496 75.488v63.008q23.008 6.016 37.504 25.504t14.496 44.512V608.992q0 24-16 40z m-168 160.992l-3.008 3.008z m98.016-177.984L744 700z m-126.016 116.992l108-110.016h-108V748.992zM676.992 768zM204.992-52q4-0.992 4.992-2.016-2.016 0.992-4.992 2.016z m27.008-4q-6.016 0-12 0.992 4.992-0.992 12-0.992z m543.008 99.008q0-15.008-10.016-25.504t-24.992-10.496H232q-14.016 0-24.512 10.496t-10.496 25.504V670.016q0 15.008 10.496 25.504t24.512 10.496h58.016v-531.008q0-30.016 20.992-51.008t50.016-20.992H775.04v-60z m52 132.992q0-2.016-2.016-2.016h-464q-2.016 0-2.016 2.016V759.008q0 2.016 2.016 2.016h251.008v-156.992q0-15.008 10.016-24.992t24-10.016h180.992v-392.992z m9.984-64q4 0.992 8.992 2.016-4.992-0.992-8.992-2.016z m-244 168.992h-107.008q-15.008 0-24.992-10.496t-10.016-24.992 10.016-24.992 24.992-10.496h107.008q14.016 0 24.512 10.496t10.496 24.992-10.496 24.992-24.512 10.496z m107.008 111.008h-214.016q-14.016 0-24.512-10.496t-10.496-24.992 10.496-24.992 24.512-10.496h214.016q14.016 0 24 10.496t10.016 24.992-10.016 24.992-24 10.496z m-240.992-36q0-4 0.992-8-0.992 4-0.992 8zM700 384z m12-52l4 2.016z m-260.992 135.488q0-14.496 10.496-24.992t24.512-10.496h214.016q14.016 0 24 10.496t10.016 24.992-10.016 24.992-24 10.496h-214.016q-14.016 0-24.512-10.496t-10.496-24.992z m8-1.504z"  horiz-adv-x="1024" />

    
    <glyph glyph-name="down" unicode="&#58948;" d="M392.448 896h238.495v-635.986h-238.495zM495.001-120.783l-339.458 339.458c-4.705 4.369-7.64 10.589-7.64 17.495 0 13.172 10.678 23.849 23.849 23.849 0.171 0 0.341-0.002 0.511-0.005l678.89 0c0.144 0.003 0.315 0.005 0.485 0.005 13.172 0 23.849-10.678 23.849-23.849 0-6.905-2.935-13.126-7.625-17.481l-338.678-339.471c-4.337-4.454-10.392-7.216-17.092-7.216-6.7 0-12.755 2.763-17.087 7.211zM392.448 896h238.495v-635.986h-238.495zM495.001-120.783l-339.458 339.458c-4.705 4.369-7.64 10.589-7.64 17.495 0 13.172 10.678 23.849 23.849 23.849 0.171 0 0.341-0.002 0.511-0.005l678.89 0c0.144 0.003 0.315 0.005 0.485 0.005 13.172 0 23.849-10.678 23.849-23.849 0-6.905-2.935-13.126-7.625-17.481l-338.678-339.471c-4.337-4.454-10.392-7.216-17.092-7.216-6.7 0-12.755 2.763-17.087 7.211z"  horiz-adv-x="1024" />

    
    <glyph glyph-name="up" unicode="&#58949;" d="M392.638 508.48h238.68v-636.48h-238.68zM495.27 888.778l-339.721-339.721c-4.709-4.372-7.646-10.597-7.646-17.508 0-13.182 10.686-23.868 23.868-23.868 0.171 0 0.341 0.002 0.511 0.005l679.418-0c0.145-0.003 0.315-0.005 0.486-0.005 13.182 0 23.868 10.686 23.868 23.868 0 6.911-2.937 13.136-7.631 17.494l-338.941 339.735c-4.341 4.457-10.4 7.222-17.105 7.222s-12.765-2.765-17.1-7.217z"  horiz-adv-x="1024" />

    
    <glyph glyph-name="redo" unicode="&#59042;" d="M139.549 440.405c18.251 42.96 44.333 81.57 77.521 114.758s71.797 59.269 114.758 77.521c44.598 18.947 91.854 28.553 140.456 28.553H650.27c0.93 0 1.852-0.031 2.772-0.07V809.334c0 17.787 21.505 26.695 34.083 14.117l220.032-220.032c7.797-7.797 7.797-20.438 0-28.235L687.125 355.152c-12.577-12.577-34.083-3.67-34.083 14.117V533.306c-0.92-0.039-1.842-0.07-2.772-0.07H472.283c-128.636 0-233.288-104.652-233.288-233.288 0-128.636 104.652-233.288 233.288-233.288H650.27c35.346 0 64-28.653 64-64s-28.654-64-64-64H472.283c-48.603 0-95.858 9.606-140.456 28.554-42.961 18.251-81.57 44.333-114.758 77.521s-59.27 71.797-77.521 114.758c-18.947 44.598-28.554 91.854-28.554 140.456s9.608 95.858 28.555 140.456z"  horiz-adv-x="1024" />

    
    <glyph glyph-name="undo" unicode="&#59052;" d="M884.451 440.405c-18.251 42.96-44.333 81.57-77.521 114.758s-71.797 59.269-114.758 77.521c-44.598 18.947-91.854 28.553-140.456 28.553H373.73c-0.93 0-1.852-0.031-2.772-0.07V809.334c0 17.787-21.505 26.695-34.083 14.117L116.843 603.419c-7.797-7.797-7.797-20.438 0-28.235l220.032-220.032c12.577-12.577 34.083-3.67 34.083 14.117V533.307c0.92-0.039 1.842-0.07 2.772-0.07h177.986c128.636 0 233.288-104.652 233.288-233.288 0-128.636-104.652-233.288-233.288-233.288H373.73c-35.346 0-64-28.653-64-64s28.654-64 64-64h177.986c48.603 0 95.858 9.606 140.456 28.554 42.961 18.251 81.57 44.333 114.758 77.521s59.27 71.797 77.521 114.758c18.947 44.598 28.554 91.854 28.554 140.456s-9.607 95.857-28.554 140.455z"  horiz-adv-x="1024" />

    
    <glyph glyph-name="back" unicode="&#58904;" d="M482.7 646.1v143.8c0 37.4-45.3 56.2-71.7 29.7l-270.7-270.6c-16.4-16.4-16.4-43 0-59.4l270.6-270.6c26.5-26.5 71.7-7.7 71.7 29.7v155c96.1 0.3 271.5 10.7 271.5-227.7 0-118.1-92.8-216.8-216-239.6 198.1 24.4 326 236 326 361.9 0.1 292.6-309.4 346.3-381.4 347.8z"  horiz-adv-x="1024" />

    
    <glyph glyph-name="font_size_down" unicode="&#58970;" d="M639.93728 49.296l-272 704-0.112-0.032A47.888 47.888 0 0 1 323.16928 784a47.92 47.92 0 0 1-44.672-30.736l-0.096 0.032-272-704 0.112-0.048A47.216 47.216 0 0 1 3.16928 32a47.92 47.92 0 1 1 92.672-17.264l0.112-0.032L158.27328 176h329.808l62.32-161.296 0.096 0.032A47.92 47.92 0 0 1 643.16928 32c0 6.112-1.248 11.888-3.328 17.264l0.096 0.032zM195.36128 272L323.16928 602.816 450.97728 272H195.36128zM979.16928 432H691.16928a48 48 0 1 1 0-96h288a48 48 0 1 1 0 96z"  horiz-adv-x="1027" />

    
    <glyph glyph-name="font_size_up" unicode="&#58971;" d="M639.93728 49.296l-272 704-0.096-0.032A47.904 47.904 0 0 1 323.16928 784a47.92 47.92 0 0 1-44.672-30.736l-0.112 0.032-272-704 0.112-0.048C4.41728 43.888 3.16928 38.096 3.16928 32a47.92 47.92 0 1 1 92.672-17.264l0.112-0.032L158.25728 176h329.808l62.32-161.296 0.112 0.032A47.92 47.92 0 0 1 643.16928 32c0 6.112-1.248 11.888-3.328 17.264l0.096 0.032zM195.36128 272L323.16928 602.816 450.97728 272H195.36128zM979.16928 432h-96v96a48 48 0 1 1-96 0v-96h-96a48 48 0 1 1 0-96h96v-96a48 48 0 1 1 96 0v96h96a48 48 0 1 1 0 96z"  horiz-adv-x="1027" />

    
    <glyph glyph-name="youcecaidan" unicode="&#58887;" d="M513.5 672c47.9 0 86.7 35.8 86.7 79.9 0 44.1-38.8 79.9-86.7 79.9-47.9 0-86.7-35.8-86.7-79.9 0-44.1 38.8-79.9 86.7-79.9z m0-194.2c-47.9 0-86.7-35.7-86.7-79.8 0-44.1 38.8-79.8 86.7-79.8 47.9 0 86.7 35.7 86.7 79.8 0 44.1-38.8 79.8-86.7 79.8z m0-353.9c-47.9 0-86.7-35.7-86.7-79.8 0-44.1 38.8-79.8 86.7-79.8 47.9 0 86.7 35.7 86.7 79.8 0 44.1-38.8 79.8-86.7 79.8z"  horiz-adv-x="1024" />

    
    <glyph glyph-name="jiacu" unicode="&#59134;" d="M311.296 435.2h266.24c59.392 0 108.544 49.152 108.544 108.544s-49.152 108.544-108.544 108.544h-266.24V435.2z m-30.72 296.96h296.96c104.448 0 190.464-83.968 190.464-190.464 0-55.296-22.528-104.448-61.44-139.264 55.296-34.816 92.16-98.304 92.16-167.936 0-110.592-90.112-198.656-198.656-198.656h-368.64v696.32h49.152z m30.72-614.4h286.72c65.536 0 116.736 53.248 116.736 116.736s-53.248 116.736-116.736 116.736h-286.72v-233.472z"  horiz-adv-x="1024" />

    
    <glyph glyph-name="caidan" unicode="&#58941;" d="M0.837818 820.781683c0-19.642164 8.098902-39.191237 21.969435-53.06177 13.963624-13.963624 33.512697-22.062525 53.247951-22.062525a76.055204 76.055204 0 0 1 53.06177 21.969434c13.963624 13.963624 22.062525 33.512697 22.062526 53.154861A76.055204 76.055204 0 0 1 129.303156 874.029635 76.055204 76.055204 0 0 1 76.055204 895.999069a76.055204 76.055204 0 0 1-53.247951-21.969434A76.706839 76.706839 0 0 1 0.837818 820.781683M0.837818 419.839502c0-19.642164 8.005811-39.377419 21.969435-53.247952 13.963624-13.963624 33.419606-21.969435 53.247951-21.969434a76.241385 76.241385 0 0 1 53.154861 21.969434 75.962113 75.962113 0 0 1 21.969435 53.247952 76.241385 76.241385 0 0 1-21.969435 53.154861 75.962113 75.962113 0 0 1-53.154861 21.969434 76.241385 76.241385 0 0 1-53.247951-21.969434 75.962113 75.962113 0 0 1-21.969435-53.154861M0.837818 18.80423c0-19.642164 8.005811-39.284328 21.969435-53.247951 13.963624-13.963624 33.419606-21.969435 53.247951-21.969435a76.241385 76.241385 0 0 1 53.154861 21.969435 75.962113 75.962113 0 0 1 21.969435 53.247951 76.241385 76.241385 0 0 1-21.969435 53.247952 75.962113 75.962113 0 0 1-53.154861 21.969434 76.241385 76.241385 0 0 1-53.247951-21.969434 76.520658 76.520658 0 0 1-21.969435-53.247952M1304.109361 820.781683c0-41.518508-32.395607-75.124295-72.331571-75.124295H373.945843c-40.029055 0-72.331571 33.512697-72.331571 75.124295C301.521181 862.486372 333.916788 895.999069 373.945843 895.999069h857.831947c40.029055 0 72.331571-33.605788 72.331571-75.217386M1231.77779 344.622116H373.945843c-40.029055 0-72.331571 33.605788-72.331571 75.217386 0 41.518508 32.302516 75.124295 72.331571 75.124295h857.831947c40.029055 0.186182 72.331571-33.512697 72.331571-75.124295 0-41.425417-32.395607-75.217386-72.331571-75.217386zM1304.109361 18.897321c0-41.611599-32.395607-75.310477-72.331571-75.310477H373.945843c-40.029055 0-72.331571 33.698878-72.331571 75.310477 0 41.425417 32.302516 75.124295 72.331571 75.124295h857.831947c40.029055 0.093091 72.331571-33.698878 72.331571-75.124295"  horiz-adv-x="1305" />

    
    <glyph glyph-name="upload_icon" unicode="&#58994;" d="M984.22 106.22c-0.006 0-0.013 0-0.020 0-15.331 0-27.76-12.429-27.76-27.76 0-0.007 0-0.014 0-0.021l-0-138.879h-888.88v138.88c0 15.342-12.438 27.78-27.78 27.78s-27.78-12.438-27.78-27.78v-166.66c-0-0.006-0-0.013-0-0.020 0-15.331 12.429-27.76 27.76-27.76 0.007 0 0.014 0 0.021 0l944.439-0c0.006-0 0.013-0 0.020-0 15.331 0 27.76 12.429 27.76 27.76 0 0.007-0 0.014-0 0.021l0 166.659c0 0.006 0 0.013 0 0.020 0 15.331-12.429 27.76-27.76 27.76-0.007 0-0.014-0-0.021-0zM492.32 875.83c5.040 5.024 11.995 8.131 19.675 8.131s14.635-3.107 19.676-8.132l277.749-277.749c5.026-5.026 8.135-11.97 8.135-19.64 0-15.34-12.435-27.775-27.775-27.775-7.67 0-14.614 3.109-19.64 8.135l-230.36 230.36v-766.27c0-15.342-12.438-27.78-27.78-27.78s-27.78 12.438-27.78 27.78l-0 766.27-230.36-230.36c-5.026-5.026-11.97-8.135-19.64-8.135-15.34 0-27.775 12.435-27.775 27.775 0 7.67 3.109 14.614 8.135 19.64z"  horiz-adv-x="1024" />

    
    <glyph glyph-name="save" unicode="&#59753;" d="M219.424 18.272h438.848v219.424H219.424v-219.424z m512 0h73.152v512q0 8-5.728 22.016t-11.424 19.712l-160.576 160.576q-5.728 5.728-19.424 11.424t-22.272 5.728V512q0-22.848-16-38.848t-38.848-16H201.152q-22.848 0-38.848 16T146.304 512V749.728H73.152v-731.424h73.152v237.728q0 22.848 16 38.848t38.848 16h475.424q22.848 0 38.848-16t16-38.848v-237.728zM512 548.576V731.424q0 7.424-5.44 12.864t-12.864 5.44h-109.728q-7.424 0-12.864-5.44t-5.44-12.864v-182.848q0-7.424 5.44-12.864t12.864-5.44h109.728q7.424 0 12.864 5.44t5.44 12.864z m365.728-18.304V0q0-22.848-16-38.848t-38.848-16h-768q-22.848 0-38.848 16T0.032 0V768q0 22.848 16 38.848t38.848 16h530.272q22.848 0 50.272-11.424t43.424-27.424l160-160q16-16 27.424-43.424t11.424-50.272z"  horiz-adv-x="1024" />

    
    <glyph glyph-name="confirm" unicode="&#58942;" d="M977.055 729.3389999999999c-47.348 47.347-124.113 47.348-171.46 0L376.922 300.66600000000005 226.685 479.711c-43.041 51.294-119.514 57.984-170.808 14.944S-2.107 375.14099999999996 40.933 323.847L274.73 45.22000000000003c41.022-48.888 112.413-57.258 163.429-20.673a121.37 121.37 0 0 1 24.515 18.951l514.381 514.381c47.348 47.347 47.348 124.112 0 171.46z"  horiz-adv-x="1024" />

    
    <glyph glyph-name="arrow-left" unicode="&#58947;" d="M319.99999967 384c0 12.8 4.266667 21.333333 12.8 29.866667l256 256.00000001c17.066667 17.066667 42.666667 17.066667 59.73333401-1e-8s17.066667-42.666667-1e-8-59.733334l-226.13333399-226.133333 226.13333399-226.133333c17.066667-17.066667 17.066667-42.666667 1e-8-59.733334s-42.666667-17.066667-59.73333401-1e-8l-256 256.00000001c-8.533333 8.533333-12.8 17.066667-12.8 29.866667z"  horiz-adv-x="1024" />

    
    <glyph glyph-name="arrow-right" unicode="&#58950;" d="M704.00000033 384c0-12.8-4.266667-21.333333-12.8-29.866667l-256-256.00000001c-17.066667-17.066667-42.666667-17.066667-59.73333401 1e-8s-17.066667 42.666667 1e-8 59.733334l226.13333399 226.133333-226.13333399 226.133333c-17.066667 17.066667-17.066667 42.666667-1e-8 59.733334s42.666667 17.066667 59.73333401 1e-8l256-256.00000001c8.533333-8.533333 12.8-17.066667 12.8-29.866667z"  horiz-adv-x="1024" />

    
    <glyph glyph-name="yulan" unicode="&#58882;" d="M642.844 213.333l39.823 39.823L910.222 25.6 870.4-14.222 642.844 213.333z m210.49 568.89h56.888v-568.89h-56.889v568.89z m-682.667 0h682.666v-56.89H170.667v56.89z m0-739.556h512v-56.89h-568.89V782.223h56.89v-739.555zM512 156.444c-125.156 0-227.556 102.4-227.556 227.556S386.844 611.556 512 611.556 739.556 509.156 739.556 384 637.156 156.444 512 156.444z m0 56.89c96.711 0 170.667 73.955 170.667 170.666S608.71 554.667 512 554.667 341.333 480.71 341.333 384 415.29 213.333 512 213.333z"  horiz-adv-x="1024" />

    
    <glyph glyph-name="cuowu" unicode="&#58908;" d="M819.8-63.2H204.2c-47.4 0-91.1 25.5-117 68.2-29 47.8-30.9 108.3-5 158L390 754c25.1 48.3 70.8 77.1 122 77.1 51.3 0 96.9-28.8 122.1-77.1l307.8-591c25.9-49.7 24-110.3-5-158.1-26-42.6-69.7-68.1-117.1-68.1zM141.8 132c-15.1-29-14-64.3 2.9-92.2 13.8-22.8 35.6-35.9 59.6-35.9h615.6c24 0 45.7 13.1 59.6 35.9 16.9 27.8 18 63.1 2.9 92.2l-308 591c-13.4 25.7-36.7 41-62.4 41-25.7 0-49.1-15.3-62.4-41L141.8 132zM545.6 552.3c0 18.6-15 33.6-33.6 33.6s-33.6-15-33.6-33.6v-294.1c0-18.6 15-33.6 33.6-33.6s33.6 15 33.6 33.6V552.3zM512 174.5c-18.6 0-33.6-15-33.6-33.6v-17.2c0-18.6 15-33.6 33.6-33.6s33.6 15 33.6 33.6v17.2c0 18.6-15 33.6-33.6 33.6z"  horiz-adv-x="1024" />

    
    <glyph glyph-name="mark" unicode="&#58880;" d="M512 857.049614L665.54355 545.4465270000001 1009.323043 495.770673 760.379272 253.036384 819.0871-89.04961400000002 512 72.39691300000004 204.9129-89.04961400000002 263.620728 253.036384 14.676957 495.770673 358.45645 545.4465270000001Z"  horiz-adv-x="1024" />

    
    <glyph glyph-name="wenjianjia" unicode="&#58944;" d="M957.3 464.4v56.7c0 57.8-47 104.8-104.8 104.8H510.1v46.8c0 57.8-47 104.8-104.8 104.8H172.6c-57.8 0-104.8-47-104.8-104.8v-208.3h889.5zM67.8 394.8v-304.5c0-57.8 47-104.8 104.8-104.8h680c57.8 0 104.8 47 104.8 104.8V394.8H67.8z"  horiz-adv-x="1024" />

    
    <glyph glyph-name="shanchu" unicode="&#58951;" d="M912 681.4H109.6c-21.1 0-38.2-17.1-38.2-38.2S88.5 605 109.6 605h88.6v-469.1c0-90.7 73.8-164.5 164.5-164.5h296.2c90.7 0 164.5 73.8 164.5 164.5V605.1H912c21.1 0 38.2 17.1 38.2 38.2 0 21-17.1 38.1-38.2 38.1zM462.5 213c0-21.1-17.1-38.2-38.2-38.2s-38.2 17.1-38.2 38.2V452.9c0 21.1 17.1 38.2 38.2 38.2s38.2-17.1 38.2-38.2V213z m172.9 0c0-21.1-17.1-38.2-38.2-38.2S559 191.9 559 213V452.9c0 21.1 17.1 38.2 38.2 38.2s38.2-17.1 38.2-38.2V213zM364.5 721.4h292.6c21.1 0 38.2 17.1 38.2 38.2s-17.1 38.2-38.2 38.2H364.5c-21.1 0-38.2-17.1-38.2-38.2s17.1-38.2 38.2-38.2z"  horiz-adv-x="1024" />

    
    <glyph glyph-name="hezuohuobanxianxing" unicode="&#58884;" d="M422.5792 351.57333300000005c5.3248 0 10.5856 0.277333 15.799467 0.712534a187.217067 187.217067 0 0 1 33.028266 5.742933c0.810667 0.2176 1.6128 0.4608 2.423467 0.686933a186.338133 186.338133 0 0 1 10.845867 3.4176 177.233067 177.233067 0 0 1 6.404266 2.389334c1.211733 0.4736 2.432 0.930133 3.630934 1.429333 2.056533 0.853333 4.078933 1.7792 6.101333 2.705067 2.517333 1.156267 5.0048 2.368 7.458133 3.630933 1.365333 0.699733 2.743467 1.3824 4.091734 2.112 1.9072 1.041067 3.776 2.141867 5.640533 3.242667 0.913067 0.5376 1.826133 1.070933 2.730667 1.621333 0.832 0.512 1.642667 1.058133 2.466133 1.582933l-0.128 0.0384C575.389867 414.203733 610.133333 472.682667 610.133333 539.310933c0 93.175467-67.8912 170.453333-156.893866 185.169067-0.981333 0.162133-1.954133 0.3456-2.939734 0.490667-2.0736 0.3072-4.164267 0.554667-6.2592 0.7936a181.917867 181.917867 0 0 1-5.333333 0.529066 173.1968 173.1968 0 0 1-14.779733 0.708267c-0.452267 0.004267-0.896 0.034133-1.348267 0.034133-3.029333-0.004267-6.0416-0.085333-9.041067-0.2304-1.250133-0.064-2.491733-0.174933-3.7376-0.260266-97.629867-6.656-174.779733-87.9104-174.779733-187.234134 0-98.504533 75.8784-179.229867 172.3648-187.054933l-0.123733-0.008533a189.482667 189.482667 0 0 1 15.317333-0.674134zM277.687467 539.310933c0 80.119467 64.9472 145.066667 145.066666 145.066667s145.066667-64.9472 145.066667-145.066667-64.9472-145.066667-145.066667-145.066666-145.066667 64.9472-145.066666 145.066666zM423.927467 767.9616h-0.008534c-0.448 0.004267-0.891733 0.034133-1.339733 0.034133 0.452267 0 0.896-0.029867 1.348267-0.034133zM633.821867 320.311467c-0.4352 0.3456-0.874667 0.682667-1.314134 1.024a341.956267 341.956267 0 0 1-28.7488 20.155733c-1.297067 0.814933-2.577067 1.646933-3.886933 2.440533a340.0192 340.0192 0 0 1-66.973867 31.3856 339.541333 339.541333 0 0 1-94.779733 17.890134l0.251733 0.029866a189.5936 189.5936 0 0 0-15.799466-0.712533c-5.162667 0-10.257067 0.264533-15.313067 0.674133-181.316267-8.106667-325.841067-157.6192-325.841067-340.936533 0-0.3584 0.0256-0.708267 0.0256-1.066667h-0.0256v-42.666666H760.917333a344.064 344.064 0 0 1 2.811734 43.8912c0.004267 108.654933-50.786133 205.4016-129.9072 267.8912zM721.3952 51.200000000000045H124.117333c0 0.3584-0.0256 0.708267-0.0256 1.066667 0 164.949333 133.717333 298.666667 298.666667 298.666666s298.666667-133.717333 298.666667-298.666666c-0.004267-0.3584-0.029867-0.708267-0.029867-1.066667zM636.253867 394.491733a274.922667 274.922667 0 0 1-30.583467-4.603733 384.128 384.128 0 0 0 52.928-34.7392c0.913067 0.0128 1.821867 0.0512 2.734933 0.0512 128.068267 0 231.927467-103.534933 232.507734-231.466667h-94.071467a384.2816 384.2816 0 0 0 5.563733-42.666666H934.4v42.666666h-0.0256c-0.546133 142.0672-109.576533 258.487467-248.5504 270.852267-8.110933-1.322667-16.426667-2.043733-24.913067-2.043733M660.8 397.7344a110.208 110.208 0 0 0-50.350933 12.1216 235.8528 235.8528 0 0 0-13.0176-16.6912 384.4352 384.4352 0 0 0 59.771733-37.994667c1.233067-0.029867 2.4576-0.093867 3.694933-0.093866 8.494933-0.004267 16.810667 0.712533 24.9216 2.039466l-0.0256 0.004267c72.942933 11.938133 128.6144 75.2256 128.6144 151.547733 0 84.829867-68.770133 153.6-153.6 153.6-3.136 0-6.2464-0.1152-9.335466-0.3072-0.558933-0.034133-1.117867-0.0896-1.6768-0.128-2.7264-0.200533-5.435733-0.456533-8.119467-0.797866l-0.913067-0.1152a155.191467 155.191467 0 0 1-18.474666-3.6096 229.201067 229.201067 0 0 0 18.0096-39.684267 110.775467 110.775467 0 0 0 20.501333 1.975467c61.265067 0 110.933333-49.668267 110.933333-110.933334s-49.668267-110.933333-110.933333-110.933333z"  horiz-adv-x="1024" />

    
    <glyph glyph-name="xiahuaxian" unicode="&#59360;" d="M802.909091-46.545455h-558.545455a34.909091 34.909091 0 0 0 0 69.818182h558.545455a34.909091 34.909091 0 0 0 0-69.818182z m-279.272727 104.727273C350.394182 58.181818 209.454545 199.121455 209.454545 372.363636v395.636364a34.909091 34.909091 0 0 0 69.818182 0v-395.636364C279.272727 237.614545 388.887273 128 523.636364 128S768 237.614545 768 372.363636v395.636364a34.909091 34.909091 0 0 0 69.818182 0v-395.636364C837.818182 199.121455 696.878545 58.181818 523.636364 58.181818z"  horiz-adv-x="1024" />

    
    <glyph glyph-name="xieti" unicode="&#59119;" d="M512 678.89573a33.048659 33.048659 0 0 1-7.118173 33.048659 92.027805 92.027805 0 0 1-47.285005 15.253228 17.286991 17.286991 0 0 0-15.761668 16.270109 26.438928 26.438928 0 0 0 0 7.118173v9.660377q33.5571-3.559086 66.097319-5.084409t60.504468 0h56.945383q33.5571 0 63.555114 5.084409a94.061569 94.061569 0 0 0 0-16.77855 14.744786 14.744786 0 0 0-15.761668-16.77855 107.789474 107.789474 0 0 1-50.844092-15.761669 53.894737 53.894737 0 0 1-18.812314-33.5571L498.780536 104.357498a31.014896 31.014896 0 0 1 7.626614-32.540219 112.365442 112.365442 0 0 1 50.844091-15.761668 16.270109 16.270109 0 0 0 14.744787-16.77855 96.095333 96.095333 0 0 0 0-17.795432q-33.5571 3.559086-68.131083 5.084409H384.889772q-33.048659 0-63.046674-5.084409a96.095333 96.095333 0 0 0 0 17.795432 14.236346 14.236346 0 0 0 13.219464 15.761668 131.686197 131.686197 0 0 1 50.844091 16.270109 50.844091 50.844091 0 0 1 20.337637 33.04866z"  horiz-adv-x="1024" />

    
    <glyph glyph-name="confirm1" unicode="&#58983;" d="M930.9618176 587.67387307c20.80003413 20.80003413 21.086208 54.23868587 0.63788373 74.68701013-20.44832427 20.44832427-53.886976 20.1621504-74.68701013-0.63788373L410.8025856 215.61180160000004 167.10806187 459.30523307c-20.8175104 20.8175104-54.26926933 21.11679147-74.7175936 0.6684672-20.44832427-20.44832427-20.1490432-53.9000832 0.6684672-74.7175936l280.04952746-280.04952747c20.8175104-20.8175104 54.26926933-21.11679147 74.7175936-0.6684672 0.14308693 0.14308693 0.2752512 0.29381973 0.41724587 0.4390912 0.14964053 0.14636373 0.30583467 0.28289707 0.45438293 0.43144533l482.26413227 482.26522454z"  horiz-adv-x="1024" />

    
    <glyph glyph-name="download" unicode="&#58991;" d="M760.4736 402.0736a25.6 25.6 0 0 1-36.1984 0L512 189.7984V768a25.6 25.6 0 0 1-51.2 0v-578.2016L248.5248 402.0736a25.6 25.6 0 0 1-36.1984-36.1984l256-256a25.4976 25.4976 0 0 1 36.2496 0.0512l256 256a25.6 25.6 0 0 1 0 36.1984zM896-76.8h-819.2C34.4576-76.8 0-42.3424 0 0v102.4a25.6 25.6 0 0 0 51.2 0v-102.4a25.6 25.6 0 0 1 25.6-25.6h819.2a25.6 25.6 0 0 1 25.6 25.6v102.4a25.6 25.6 0 0 0 51.2 0v-102.4c0-42.3424-34.4576-76.8-76.8-76.8z"  horiz-adv-x="1024" />

    
    <glyph glyph-name="replace_string" unicode="&#58883;" d="M754.57812525 488.4580079L616.4580079 626.5781252500001l87.36328116 87.34130809 138.09814428-138.09814428-87.34130809-87.36328116z m-31.09130868-31.06933637L320.17871094 54.080566660000045H197.41748055l-15.33691389 15.33691389V192.17871093999997L585.38867153 595.48681658l138.09814505-138.09814505zM841.589844 164.27343785000005v-109.86328185H402.13671893v15.71044938L496.28955061 164.27343785000005H841.589844z"  horiz-adv-x="1024" />

    
    <glyph glyph-name="huiche" unicode="&#58961;" d="M793.3 704.2h-185c-17.7 0-32-14.3-32-32s14.3-32 32-32h184.9c4.6 0 8.4-3.8 8.4-8.4v-303.1c0-4.6-3.8-8.4-8.4-8.4h-507L458 492.1c12.5 12.5 12.5 32.8 0 45.3s-32.8 12.5-45.3 0L213.2 337.7c-13.1-13.1-20.3-30.5-20.3-49s7.2-35.9 20.3-49l201.4-201.4c6.2-6.2 14.4-9.4 22.6-9.4 8.2 0 16.4 3.1 22.6 9.4 12.5 12.5 12.5 32.8 0 45.3L287.2 256.3h506.1c39.9 0 72.4 32.5 72.4 72.4V631.8c0 39.9-32.5 72.4-72.4 72.4z"  horiz-adv-x="1024" />

    
    <glyph glyph-name="fanhui" unicode="&#58885;" d="M173.7 583.5c-11 0-20-9-20-20v-15.1c0-11 9-20 20-20H852c11 0 20-9 20-20v-369.1c0-11-9-20-20-20H323.6c-11 0-20-9-20-20v-15.1c0-11 9-20 20-20H907c11 0 20 9 20 20V563.5c0 11-9 20-20 20H173.7zM341.6 361c7.8 7.8 7.8 20.5 0 28.3L189 541.8c-7.8 7.8-7.8 20.5 0 28.3l152.6 152.6c7.8 7.8 7.8 20.5 0 28.3L331 761.6c-7.8 7.8-20.5 7.8-28.3 0L150.1 609c-7.8-7.8-14.1-14.1-14.2-14.1 0 0-6.4-6.4-14.2-14.1L111 570.1c-7.8-7.8-7.8-20.5 0-28.3l191.5-191.5c7.8-7.8 20.5-7.8 28.3 0l10.8 10.7z"  horiz-adv-x="1024" />

    
    <glyph glyph-name="jinhangzhong" unicode="&#58890;" d="M372.893538-128H94.523077a94.523077 94.523077 0 0 0-94.523077 94.523077V801.476923a94.523077 94.523077 0 0 0 94.523077 94.523077h693.169231a94.523077 94.523077 0 0 0 94.523077-94.523077v-236.307692a31.507692 31.507692 0 0 0-63.015385 0V801.476923a31.507692 31.507692 0 0 1-31.507692 31.507692H94.523077a31.507692 31.507692 0 0 1-31.507692-31.507692v-834.953846a31.507692 31.507692 0 0 1 31.507692-31.507692h278.370461a31.507692 31.507692 0 0 0 0-63.015385zM661.661538 612.430769H173.292308a31.507692 31.507692 0 0 0 0 63.015385h488.36923a31.507692 31.507692 0 0 0 0-63.015385zM330.830769 376.123077H173.292308a31.507692 31.507692 0 0 0 0 63.015385h157.538461a31.507692 31.507692 0 0 0 0-63.015385zM267.815385 139.815385h-94.523077a31.507692 31.507692 0 0 0 0 63.015384h94.523077a31.507692 31.507692 0 0 0 0-63.015384zM708.923077-128a315.076923 315.076923 0 1 0 315.076923 315.076923 315.076923 315.076923 0 0 0-315.076923-315.076923z m0 567.138462a252.061538 252.061538 0 1 1 252.061538-252.061539 252.061538 252.061538 0 0 1-252.061538 252.061539zM756.184615 45.292308a32.610462 32.610462 0 0 0-12.130461 2.363077A31.507692 31.507692 0 0 0 724.676923 76.8v63.015385H567.138462a31.507692 31.507692 0 0 0 0 63.015384h189.046153a31.507692 31.507692 0 0 0 31.507693-31.507692v-18.432l26.308923 26.308923-64.275693 64.433231a31.507692 31.507692 0 0 0 44.425847 44.425846l86.646153-86.646154a31.507692 31.507692 0 0 0 0-44.425846l-102.4-102.4A31.507692 31.507692 0 0 0 756.184615 45.292308z"  horiz-adv-x="1024" />

    
    <glyph glyph-name="yiwancheng" unicode="&#58895;" d="M372.893538-128H94.523077a94.523077 94.523077 0 0 0-94.523077 94.523077V801.476923a94.523077 94.523077 0 0 0 94.523077 94.523077h693.169231a94.523077 94.523077 0 0 0 94.523077-94.523077v-236.307692a31.507692 31.507692 0 0 0-63.015385 0V801.476923a31.507692 31.507692 0 0 1-31.507692 31.507692H94.523077a31.507692 31.507692 0 0 1-31.507692-31.507692v-834.953846a31.507692 31.507692 0 0 1 31.507692-31.507692h278.370461a31.507692 31.507692 0 0 0 0-63.015385zM661.661538 612.430769H173.292308a31.507692 31.507692 0 0 0 0 63.015385h488.36923a31.507692 31.507692 0 0 0 0-63.015385zM330.830769 376.123077H173.292308a31.507692 31.507692 0 0 0 0 63.015385h157.538461a31.507692 31.507692 0 0 0 0-63.015385zM267.815385 139.815385h-94.523077a31.507692 31.507692 0 0 0 0 63.015384h94.523077a31.507692 31.507692 0 0 0 0-63.015384zM708.923077-128a315.076923 315.076923 0 1 0 315.076923 315.076923 315.076923 315.076923 0 0 0-315.076923-315.076923z m0 567.138462a252.061538 252.061538 0 1 1 252.061538-252.061539 252.061538 252.061538 0 0 1-252.061538 252.061539zM693.169231 45.292308a31.507692 31.507692 0 0 0-22.212923 9.294769l-110.276923 110.276923a31.507692 31.507692 0 0 0 44.425846 44.425846L693.169231 121.383385l158.956307 158.798769a31.507692 31.507692 0 0 0 44.425847-44.425846l-181.169231-181.169231A31.507692 31.507692 0 0 0 693.169231 45.292308z"  horiz-adv-x="1024" />

    
    <glyph glyph-name="tihuan" unicode="&#59259;" d="M704 0h-64V384.064h64v-64h128v-64h-128v-192h128V0h-128z m192 256.064v-192h-64v192h64zM256-128v320.064h64v-256h640v640h-256v-128h-64v384H64v-576h128v-64H0v704h704v-256h320V-128H256zM192 384.064h64c32-86.016 128-64 128-64v128h64c67.968-140.032 128-192 128-192v-64l-192-128v128H320c-148.032 15.936-128 192-128 192z m0 64H128v128h64V512h128V576.064H192v64h128v64H128v64h256V448.064H192z"  horiz-adv-x="1024" />

    
    <glyph glyph-name="xiayige" unicode="&#58928;" d="M512-72.5c-7 0-13.8 3.4-19.1 10.3L123.5 416.2c-11.2 14.4-11 38.4 0.9 51.8 10.6 12 26.7 11.4 36.8-1.7l331.2-429c10.8-14 28.3-14 39.1 0l330.8 428.4c11.2 14.4 29.6 14.2 40-1.2 9.3-13.8 8.8-34.6-1.3-47.7l-369.9-479c-5.2-6.9-12.1-10.3-19.1-10.3zM512 291.5c-7 0-13.8 3.4-19.1 10.3L123.5 780.2c-11.2 14.4-11 38.4 0.9 51.8 10.6 12 26.7 11.4 36.8-1.7l331.2-429c10.8-14 28.3-14 39.1 0L862.9 830.2c10.1 13.1 26.2 13.7 36.8 1.7 11.9-13.4 12.1-37.3 0.9-51.8L531.2 301.70000000000005c-5.3-6.8-12.2-10.2-19.2-10.2z"  horiz-adv-x="1028" />

    
    <glyph glyph-name="gengduo" unicode="&#59123;" d="M113.575 495.553c61.606 0 111.559-49.951 111.559-111.554s-49.952-111.554-111.559-111.554c-61.606 0-111.559 49.951-111.559 111.554S51.97 495.553 113.575 495.553zM511.999 495.553c61.606 0 111.559-49.951 111.559-111.554s-49.952-111.554-111.559-111.554c-61.606 0-111.559 49.951-111.559 111.554s49.953 111.554 111.559 111.554zM910.422 495.553c61.606 0 111.559-49.951 111.559-111.554s-49.952-111.554-111.559-111.554c-61.605 0-111.559 49.951-111.559 111.554s49.954 111.554 111.559 111.554z"  horiz-adv-x="1024" />

    
    <glyph glyph-name="layout_vertical" unicode="&#59564;" d="M896 800l-800 0 0-800 800 0 0 800zM128 416l0 352 736 0 0-352-736 0zM128 32l-1e-8 352 736.00000001 0 0-352-736 0z"  horiz-adv-x="1024" />

    
    <glyph glyph-name="wenhao" unicode="&#58982;" d="M712.96 357.12c2.56 2.986667 4.693333 5.546667 6.826667 8.533333 0.853333 1.28 2.133333 2.56 2.986666 3.84 1.706667 2.133333 2.986667 4.266667 4.693334 6.4 0.853333 1.28 2.133333 2.986667 2.986666 4.266667 2.133333 3.413333 4.266667 6.4 6.4 9.813333 0 0.426667 0.426667 0.426667 0.426667 0.853334 25.6 41.813333 40.106667 91.733333 38.826667 145.066666-3.413333 140.8-119.466667 255.573333-260.266667 257.706667-148.053333 2.133333-268.8-116.906667-268.8-264.533333v-2.986667c0.426667-18.773333 15.36-33.706667 34.133333-33.706667 19.2 0 34.133333 15.786667 34.133334 34.986667V529.066667c0 113.066667 96.426667 204.373333 211.2 195.84 96.853333-7.253333 174.933333-86.613333 180.906666-183.466667 4.693333-77.653333-35.84-146.346667-98.133333-182.186667-71.253333-38.826667-122.88-109.653333-135.253333-193.28-2.986667-20.48 13.226667-38.826667 33.706666-38.826666 16.64 0 31.146667 11.946667 33.706667 28.586666 8.96 61.44 46.506667 113.493333 98.56 142.933334 6.826667 3.84 13.226667 7.68 19.626667 11.946666l3.84 2.56c2.133333 1.28 3.84 2.986667 5.973333 4.266667 1.706667 1.28 3.413333 2.56 5.12 4.266667 2.56 2.133333 5.12 4.266667 8.106667 6.4 1.28 1.28 2.986667 2.56 4.266666 3.84 1.706667 1.28 3.413333 2.986667 5.12 4.693333 2.56 2.133333 4.693333 4.693333 7.253334 6.826667l4.693333 4.693333c1.706667 1.706667 2.986667 3.413333 4.693333 5.12 1.706667 0.853333 2.986667 2.133333 4.266667 3.84zM499.2 17.066667000000052m-42.666667 0a42.666667 42.666667 0 1 1 85.333334 0 42.666667 42.666667 0 1 1-85.333334 0Z"  horiz-adv-x="1024" />

    
    <glyph glyph-name="wenhao1" unicode="&#58920;" d="M512-40.746667c234.581333 0 424.746667 190.165333 424.746667 424.746667S746.581333 808.746667 512 808.746667 87.253333 618.581333 87.253333 384 277.418667-40.746667 512-40.746667z m0-64C242.090667-104.746667 23.253333 114.090667 23.253333 384 23.253333 653.909333 242.090667 872.746667 512 872.746667 781.909333 872.746667 1000.746667 653.909333 1000.746667 384c0-269.909333-218.837333-488.746667-488.746667-488.746667zM422.826667 459.733333v-0.682666a32 32 0 1 0-64 1.28 11.306667 11.306667 0 0 0-0.042667 1.408c0 47.274667 13.269333 86.186667 39.552 116.864 28.8 33.109333 68.48 49.322667 118.741333 49.322666 44.714667 0 80.938667-12.970667 108.544-39.125333 26.453333-24.917333 39.594667-58.624 39.594667-100.352 0-30.293333-9.386667-58.112-27.733333-82.389333-7.68-9.685333-24.234667-25.813333-54.229334-52.949334-14.506667-12.672-24.746667-24.490667-31.146666-35.285333-8.405333-14.506667-12.458667-29.269333-12.501334-45.141333l1.152-19.370667a11.178667 11.178667 0 0 0-11.178666-11.861333h-41.898667a11.178667 11.178667 0 0 0-11.221333 11.178666v19.370667c0 21.162667 4.437333 40.917333 13.098666 58.197333 10.496 22.485333 32.213333 48.512 63.701334 75.989334 19.584 19.626667 25.728 25.941333 29.781333 31.018666 12.8 16.469333 19.029333 32.810667 19.029333 49.92 0 25.472-7.381333 45.568-21.418666 60.202667-14.762667 14.762667-36.352 22.144-65.578667 22.144-32.64 0-56.021333-10.496-72.106667-31.872-13.525333-16.938667-19.968-41.685333-19.968-75.861333a11.264 11.264 0 0 0-0.170666-2.005334zM512 132.352a32 32 0 1 0 0 64 32 32 0 0 0 0-64z"  horiz-adv-x="1024" />

    
    <glyph glyph-name="cancelMark" unicode="&#59754;" d="M512 857.049614L665.54355 545.4465270000001 1009.323043 495.770673 760.379272 253.036384 819.0871-89.04961400000002 512 72.39691300000004 204.9129-89.04961400000002 263.620728 253.036384 14.676957 495.770673 358.45645 545.4465270000001Z"  horiz-adv-x="1024" />

    
    <glyph glyph-name="doubt" unicode="&#58881;" d="M502.2 84.39999999999998c-30.9 0-56.3-9.8-77.4-29.5-21.1-19.7-30.9-45-30.9-76 0-30.9 9.8-56.3 30.9-76 21.1-19.7 46.4-30.9 77.4-30.9 30.9 0 56.3 9.8 77.4 29.5 21.1 19.7 32.4 46.4 32.4 77.4 0 30.9-11.3 56.3-30.9 76-21.3 19.6-48 29.5-78.9 29.5zM749.7 821.5C693.4 872.1 618.9 896 527.5 896 423.4 896 341.8 866.5 281.3 807.4c-61.9-59.1-91.4-140.7-91.4-244.7h160.3c0 59.1 11.3 105.5 35.2 137.8 26.7 39.4 70.3 57.7 132.2 57.7 47.8 0 85.8-12.7 112.5-39.4 25.3-26.7 39.4-63.3 39.4-109.7 0-35.2-12.7-68.9-38-99.9l-16.9-19.7C523.2 407.9 468.3 348.79999999999995 450 310.9c-19.7-38-28.1-84.4-28.1-137.8v-19.7h161.8V173c0 33.8 7 63.3 21.1 91.4 12.7 25.3 30.9 49.2 56.3 70.3 67.5 59.1 108.3 97.1 121 111.1 33.8 45 52 102.7 52 173 0 85.9-28.1 153.4-84.4 202.7z"  horiz-adv-x="1024" />

    
    <glyph glyph-name="shangyige" unicode="&#59755;" d="M512 840.5c7 0 13.8-3.40000001 19.10000001-10.3L900.50000001 351.79999999999995c11.2-14.4 11-38.4-0.90000001-51.8-10.6-11.99999999-26.7-11.4-36.8 1.7l-331.2 429c-10.8 14-28.3 14-39.1 0l-330.8-428.4c-11.2-14.4-29.6-14.2-40 1.2-9.3 13.80000001-8.8 34.59999999 1.3 47.7l369.89999999 479c5.2 6.9 12.1 10.3 19.10000001 10.3zM512 476.5c7 0 13.8-3.40000001 19.1-10.3L900.5-12.200000010000053c11.2-14.4 11-38.4-0.9-51.79999999-10.6-11.99999999-26.7-11.4-36.8 1.70000001l-331.19999999 428.99999999c-10.8 14-28.3 14-39.10000001 0L161.1-62.200000000000045c-10.1-13.09999999-26.2-13.7-36.8-1.7-11.9 13.4-12.1 37.3-0.9 51.8L492.8 466.3c5.3 6.8 12.2 10.2 19.2 10.2z"  horiz-adv-x="1028" />

    
    <glyph glyph-name="wulianwang-" unicode="&#58889;" d="M703.4112-99.0208a12.8 12.8 0 0 0-12.8 12.8c0 45.5168 16.6912 64.512 36.0192 86.4512 21.5296 24.4224 48.3072 54.8352 64.3584 141.3376 5.9904 33.2032 23.1168 41.4464 38.2464 48.7424 19.072 9.1904 40.6784 19.6352 47.4368 107.264-0.0512 50.9696-25.472 64.7168-26.5472 65.2544l-8.448 4.352 1.5104 9.4464c0.1792 0.9216 16.9984 92.6976 23.4496 162.048 3.6864 40.0128-7.5264 126.848-72.8064 198.3744C730.6496 806.2976 635.8272 841.3952 512 841.3952c-124.3136 0-219.3664-35.2512-282.5472-104.8064-65.024-71.5776-75.904-158.0544-72.0384-197.8624 6.8352-69.376 23.6544-161.152 23.8336-162.0992l1.792-9.8304-9.088-4.1472c-0.896-0.4608-26.5216-13.8752-26.5216-66.0736 6.6816-86.6816 28.288-97.1008 47.36-106.2912 15.1296-7.296 32.2816-15.5392 38.272-48.7936 16.0256-86.4512 42.8288-116.8384 64.3328-141.2864 19.3536-21.9392 36.0448-40.9344 36.0448-86.4512a12.8 12.8 0 0 0-25.6 0c0 35.8656-11.8016 49.2544-29.6448 69.5296-22.3488 25.3696-52.9664 60.1344-70.2976 153.6-3.712 20.4544-10.9824 23.9872-24.192 30.3616-29.5168 14.2336-54.5536 33.7152-61.824 128.384-0.0256 50.7648 20.5312 74.8032 32.7168 84.6336-4.3008 24.3456-16.896 97.792-22.656 156.0064-4.224 44.0064 7.552 139.3152 78.592 217.5488C278.7328 828.9024 380.1856 866.9952 512 866.9952c131.328 0 232.4992-37.9136 300.7232-112.6656 71.2704-78.1056 83.4304-173.7728 79.3856-217.984-5.4272-58.2912-17.9968-131.8912-22.2976-156.16 12.0576-9.8304 32.4096-33.792 32.4096-83.584-7.296-95.616-32.3328-115.1232-61.8496-129.3568-13.2352-6.3744-20.5312-9.9072-24.192-30.3104-17.3568-93.5168-47.9488-128.2816-70.2976-153.6512-17.8432-20.2752-29.6448-33.6384-29.6448-69.5296a12.8256 12.8256 0 0 0-12.8256-12.7744zM484.992 723.3792l-0.896-480.7936a114.6368 114.6368 0 0 1-5.9136-4.3008c-63.4368-48.5632-131.8912-6.9888-132.2496-6.4512-15.5904 10.0352-24.7296 22.0416-27.5968 35.6608-3.584 20.608 10.0352 38.8864 10.0352 39.424 10.5728 13.7984 14.6944 26.5216 12.9024 38.8864a32.896 32.896 0 0 1-12.3648 21.1456c-35.6608 26.88-20.9664 58.0608-20.9664 58.0608a9.4208 9.4208 0 0 1-4.1216 12.3648 9.1648 9.1648 0 0 1-12.3648-4.1216c-7.3472-15.5904-11.4688-52.1472 26.5216-80.9984 1.2544-1.4336 13.2608-11.1104-4.1216-33.8688a71.936 71.936 0 0 1-11.2896-22.0416c-18.6368 9.856-32.0768 20.9664-41.5744 32.4352l-9.3184 13.0816c-23.8336 40.1408-7.5264 80.64-5.5552 84.5824 12.3648 22.7584 27.9552 37.4528 47.1296 43.3664 30.1056 9.1392 58.9568-5.9136 58.9568-6.4512 59.136-34.7648 27.5968-96.0512 26.1632-98.7392l-0.5376-1.4336c-3.2256-8.6016-2.1504-15.5904 1.9712-20.608 4.1216-5.0176 10.3936-5.9136 15.4112-5.5552 12.9024-0.3584 21.504-3.584 26.1632-10.0352 6.4512-9.1392 2.688-22.4 1.792-25.984-6.4512-10.0352-14.1568-16.128-22.4-17.024-15.5904-1.792-30.2848 12.3648-30.2848 12.9024a8.8832 8.8832 0 0 1-12.7232 0 9.088 9.088 0 0 1 0-12.9024c0.5376-0.896 17.92-18.2784 39.7824-18.2784 1.4336 0 3.2256 0 4.6592 0.5376 14.1568 1.792 26.5216 10.3936 36.5568 26.5216l0.896 1.792c0.5376 0.896 8.7808 24.7296-3.584 43.008-7.8848 11.4688-22.0416 17.3824-41.216 17.3824 0 0 0 1.4336 0.3584 1.4336 14.336 27.4176 25.2672 87.808-33.3312 122.5728-1.4336 0.7168-22.4 12.1856-49.4592 11.8272-0.1792 0-0.3584 0-0.3584 0.1792-3.7632 2.3296-11.4688 15.5904-6.9888 53.0432 0.5376 5.0176-3.2256 9.6768-7.7056 10.0352-5.0176 0.5376-9.6768-3.2256-10.0352-7.7056-3.584-30.1056-0.3584-47.6672 4.6592-58.24a78.0288 78.0288 0 0 1-23.8336-10.2144c-0.5376 0.5376-0.896 1.0752-1.4336 1.6128-52.3264 45.3376-22.9376 87.808-21.504 89.7792l0.3584 0.896c22.0416 39.2448 75.9808 24.7296 80.9984 23.296 45.3376-19.712 27.0592-81.8944 27.0592-82.432a9.344 9.344 0 0 1 5.9136-11.4688 9.4464 9.4464 0 0 1 11.4688 6.0928c4.48 14.8736 7.5264 38.3488 1.4336 60.032 31.0016 9.1392 44.8-4.3008 45.3376-5.1968 26.5216-27.4176 13.6192-52.6848 10.9312-57.1648-7.3472-6.9888-10.5728-14.1568-10.0352-21.504 0.3584-6.0928 4.1216-10.5728 7.3472-13.2608 9.4976-10.2144 16.3072-29.3888 18.6368-36.736 5.5552-28.8512-14.5152-49.4592-14.5152-49.8176a8.7808 8.7808 0 0 1 0-12.9024 9.7024 9.7024 0 0 1 6.8096-3.2256 9.6256 9.6256 0 0 1 6.4512 2.8672c0.896 0.896 27.4176 27.9552 19.5328 66.8416v0.896c-0.3584 1.2544-8.6016 29.7472-24.192 45.3376l-1.4336 1.2544c0 0.896 0.896 3.2256 5.0176 7.3472l1.0752 0.896 0.3584 0.896c9.1392 13.7984 18.816 48.5632-12.7232 81.1776-0.896 0.7168-22.2208 22.7584-65.7664 9.4976a63.744 63.744 0 0 1-31.7184 27.4176l-1.0752 0.5376a113.4592 113.4592 0 0 1-18.9952 3.9424c-2.688 9.3184-5.376 27.9552 1.2544 34.048a8.9344 8.9344 0 0 1 0.3584 12.9024 8.704 8.704 0 0 1-12.7232 0.3584c-13.0816-12.0064-10.5728-34.5856-8.064-46.4128a89.2672 89.2672 0 0 1-36.5568-8.96c-24.9088 33.152 2.1504 59.6736 5.7344 62.72 15.9488 15.0528 32.0768 21.504 47.1296 18.816 28.3136-4.6592 47.1296-37.0944 49.4592-41.216 5.9136-14.6944 15.5904-24.7296 27.9552-28.8512 20.9664-7.3472 42.112 4.1216 43.008 5.0176l1.2544 0.896 0.896 1.4336c12.9024 14.5152 17.92 29.2096 15.232 43.008-3.7632 19.712-22.0416 29.2096-22.9376 29.7472l-0.896 0.3584-1.4336 0.5376c-27.9552 5.9136-35.6608 15.0528-37.4528 19.712-2.8672 5.9136 0.896 11.8272 0.896 11.8272a9.6512 9.6512 0 0 1-2.688 12.9024 9.0112 9.0112 0 0 1-12.3648-2.8672c-3.2256-5.0176-7.8848-16.4864-2.8672-28.8512 5.9136-14.1568 22.4-24.5504 49.4592-30.6432 2.688-1.792 10.9312-7.168 12.3648-16.4864 1.4336-7.7056-1.792-16.4864-10.0352-25.984-4.1216-1.792-15.9488-6.9888-26.5216-2.8672-7.3472 2.8672-12.9024 9.3184-17.024 18.816l-0.3584 0.896c-0.896 1.9712-24.3712 44.4416-62.72 50.8928a65.7408 65.7408 0 0 1-11.8272 0.896c13.2608 26.5216 31.5392 43.5456 54.2976 50.3552 52.1472 15.5904 120.6016-28.8512 128.6656-34.4064zM622.464 668.9792a13.2352 13.2352 0 1 1 0.0256 26.496 13.2352 13.2352 0 0 1-0.0256-26.496zM700.928 462.6432c-5.0176-1.4336-10.0352 0.896-11.2896 5.9136-1.4336 5.0176 0.896 10.0352 5.9136 11.2896 13.7984 4.48 37.8112 5.7344 60.3904-6.6304a6.1696 6.1696 0 0 0 1.4336 1.6128c50.7136 43.904 24.3712 85.6576 21.504 89.2416-23.8336 27.9552-46.7712 23.8336-48.0256 23.4752a9.472 9.472 0 0 0-11.1104 6.8096 9.6 9.6 0 0 0 6.9888 11.1104c0.896 0.1792 17.024 3.7632 37.0944-6.272 28.8512 34.5856 0.3584 62.3616-2.8672 65.2288-37.9904 31.0016-66.304 15.0528-67.7376 14.1568a8.96 8.96 0 0 0-12.3648 2.688 9.5488 9.5488 0 0 0 2.688 12.9024c0.896 0.5376 15.7696 9.4976 38.7072 7.168-13.2608 27.4176-31.7184 44.8-55.0144 51.968-51.4304 15.232-118.4512-27.2384-128.3072-33.6896l0.896-481.6896c1.4336-1.0752 3.584-2.688 6.0928-4.6592 63.0784-48.9216 129.3824-8.2432 132.2496-6.4512 15.9488 10.0352 25.088 22.4 27.4176 35.6608 3.7632 20.608-9.6768 38.8864-10.0352 39.424-2.688 4.1216-2.3296 9.6768 1.792 12.7232a9.344 9.344 0 0 0 12.9024-1.792c0.5376-0.5376 6.9888-8.96 11.1104-21.6832 18.0992 9.6768 31.1808 20.2496 40.6784 31.36l10.5728 14.6944c24.192 41.0368 6.272 82.432 5.376 84.5824-25.2672 55.3728-74.7264 41.216-77.056 40.8576z m-9.856-127.7696a31.5904 31.5904 0 0 0-31.5392 31.5392c0 14.8736 10.3936 27.4176 24.192 30.8224v36.9152h-66.8416a31.7184 31.7184 0 0 0-21.504-24.5504v-95.5136c12.7232-4.1216 22.0416-16.128 22.0416-30.1056 0-17.3824-14.336-31.5392-31.5392-31.5392a31.616 31.616 0 1 0-8.7808 62.0032v94.7968a31.7696 31.7696 0 0 0-22.7584 30.464c0 14.336 9.4976 26.5216 22.7584 30.2848v58.9568c0 1.2544 0.1792 2.5088 0.7168 3.584a9.3952 9.3952 0 0 0 8.96 6.9888h25.984V652.2368a31.488 31.488 0 0 0-21.8624 29.9264 31.744 31.744 0 0 0 31.5392 31.7184c17.3824 0 31.5392-14.336 31.5392-31.7184 0-14.336-9.6768-26.5216-22.9376-30.2848v-112.3584h38.7072a31.744 31.744 0 0 0 30.464 23.296 31.616 31.616 0 0 0 0-63.2576 31.9744 31.9744 0 0 0-29.9264 21.504h-74.9056v-51.2512c8.6016-2.8672 15.5904-9.1392 19.1744-17.3824h78.4896c5.0176 0 9.1392-4.1216 9.1392-9.1392a3.3792 3.3792 0 0 0-0.3584-1.4336c0.1792-0.7168 0.3584-1.2544 0.3584-1.6128v-44.2624a31.5904 31.5904 0 0 0-11.1104-61.1072zM585.8048 297.3184a13.312 13.312 0 0 1 0-26.624 13.312 13.312 0 0 1 0 26.624zM691.072 366.4384m-13.2608 0a13.2608 13.2608 0 1 1 26.5216 0 13.2608 13.2608 0 1 1-26.5216 0ZM585.8048 439.6544m-13.2608 0a13.2608 13.2608 0 1 1 26.5216 0 13.2608 13.2608 0 1 1-26.5216 0ZM700.2112 517.9136a13.3888 13.3888 0 0 1 13.3632 13.2608 13.4144 13.4144 0 0 1-13.3632 13.3632 13.3888 13.3888 0 0 1-13.2608-13.3632c0-7.2448 6.016-13.2608 13.2608-13.2608z"  horiz-adv-x="1024" />

    
    <glyph glyph-name="xiazai" unicode="&#58940;" d="M761.98 482.88c0.25 4.4 0.39 8.82 0.39 13.28 0 127.18-102.84 230.28-229.71 230.28s-229.71-103.1-229.71-230.28c0-0.67 0.02-1.33 0.03-2a213.156 213.156 0 0 1-38.91 3.58c-117.2 0-212.21-95.25-212.21-212.74 0-117.49 95.01-212.74 212.21-212.74 2.94 0 5.86 0.08 8.77 0.2 2.54-0.13 5.09-0.2 7.66-0.2h467.35c2.82 0 5.61 0.09 8.39 0.24 108.96 5.16 195.72 95.13 195.72 205.36 0.01 108.3-83.73 197.04-189.98 205.02zM616.33 311.76l-90.86-93.93c-0.78-1.11-1.66-2.17-2.63-3.17-3.95-4.09-8.9-6.62-14.09-7.61-8.34-1.77-17.38 0.51-23.97 6.89a25.975 25.975 0 0 0-3.16 3.68l-93.5 90.45c-10.53 10.19-10.81 26.99-0.62 37.52 10.19 10.53 26.99 10.81 37.52 0.62l45.09-43.62c0 0.06-0.01 0.12-0.01 0.18l-2.43 146.62c-0.3 17.83 13.92 32.52 31.75 32.82 17.83 0.3 32.52-13.92 32.82-31.75l2.43-146.63v-0.17l43.52 44.99c10.19 10.53 26.99 10.81 37.52 0.62 10.53-10.17 10.81-26.97 0.62-37.51z"  horiz-adv-x="1024" />

    


  </font>
</defs>
</svg>
